<?xml version="1.0" encoding="UTF-8" standalone="no"?>
<svg
	viewBox="0 0 1440 54.743801"
	version="1.1"
	width="1440"
	height="54.743801"
	xmlns="http://www.w3.org/2000/svg"
	xmlns:svg="http://www.w3.org/2000/svg">
<path
	  fill="#0099ff"
	  fill-opacity="1"
	  d="m 0,0 48,6.08264 c 48,6.08265 144,18.24794 240,19.25537 96,1.08348 192,-9.18099 288,-8.09752 96,1.00744 192,13.17273 288,19.25538 96,6.08264 192,6.08264 288,0 96,-6.08265 192,-18.24794 240,-24.33058 l 48,-6.08265 V 54.7438 h -48 c -48,0 -144,0 -240,0 -96,0 -192,0 -288,0 -96,0 -192,0 -288,0 -96,0 -192,0 -288,0 -96,0 -192,0 -240,0 H 0 Z"
	  id="path2"
	  style="stroke-width:0.435985;fill:#00ffff" />
</svg>
